<svg xmlns="http://www.w3.org/2000/svg" viewBox="0 0 512 512">
  <defs>
    <linearGradient id="bg" x1="64" x2="448" y1="64" y2="448" gradientUnits="userSpaceOnUse">
      <stop stop-color="#56ccf2"/>
      <stop offset="1" stop-color="#735dff"/>
    </linearGradient>
    <linearGradient id="grass" x1="120" x2="392" y1="126" y2="216">
      <stop stop-color="#56f39a"/>
      <stop offset="1" stop-color="#22c55e"/>
    </linearGradient>
    <linearGradient id="dirt" x1="120" x2="392" y1="205" y2="390">
      <stop stop-color="#7c4a25"/>
      <stop offset="1" stop-color="#4b2e1c"/>
    </linearGradient>
    <filter id="shadow" x="-30%" y="-30%" width="160%" height="160%">
      <feDropShadow dx="0" dy="18" stdDeviation="18" flood-color="#000" flood-opacity=".35"/>
    </filter>
  </defs>
  <rect x="32" y="32" width="448" height="448" rx="112" fill="#071120"/>
  <rect x="44" y="44" width="424" height="424" rx="102" fill="url(#bg)" opacity=".28"/>
  <g filter="url(#shadow)">
    <path d="M120 168c0-18 14-32 32-32h208c18 0 32 14 32 32v176c0 18-14 32-32 32H152c-18 0-32-14-32-32V168z" fill="url(#dirt)"/>
    <path d="M120 168c0-18 14-32 32-32h208c18 0 32 14 32 32v58H120v-58z" fill="url(#grass)"/>
    <path d="M160 136h42v43h-42zM246 136h52v39h-52zM331 136h29c18 0 32 14 32 32v16h-61z" fill="#9bf7bd" opacity=".78"/>
    <path d="M157 250h42v42h-42zM231 229h49v48h-49zM313 270h44v44h-44zM205 318h41v39h-41z" fill="#a87543" opacity=".78"/>
    <path d="M152 376h208c18 0 32-14 32-32v-12H120v12c0 18 14 32 32 32z" fill="#2a1d16" opacity=".36"/>
  </g>
  <circle cx="365" cy="145" r="54" fill="#ff7a90"/>
  <path d="M365 112v66M332 145h66" stroke="#fff" stroke-width="18" stroke-linecap="round"/>
</svg>